<svg width="131" height="25" viewBox="0 0 131 25" fill="none" xmlns="http://www.w3.org/2000/svg">
<path d="M8.5 4C2.5 4 -1.12057e-07 6.56356 -2.62268e-07 10L-5.02681e-07 15.5C-6.52893e-07 18.9364 2.5 21.5 8.5 21.5L14.3125 21.5C19.75 21.5 20 20.8438 20 19.75C20 18.5001 19.5 18 18.25 18L8.5 18C5.5 18 4 16.5034 4 15L4 14.5L18.25 14.5C19.25 14.5 20 13.8437 20 12.75C20 11.6563 19.25 11 18.25 11L4 11L4 10.5C4 8.99656 5.5 7.5 8.5 7.5L18.25 7.5C19.5 7.5 20 6.99994 20 5.75C20 4.65619 19.75 4 14.3125 4L8.5 4Z" fill="white"/>
<path d="M27.26 19V6.04H35.72V8.326H29.708V11.098H34.64V13.384H29.708V16.714H35.72V19H27.26ZM44.5012 14.41C44.5012 13.918 44.4652 13.456 44.3932 13.024C44.3212 12.592 44.1292 12.196 43.8172 11.836C43.5112 11.476 43.0432 11.296 42.4132 11.296C42.0652 11.296 41.7382 11.368 41.4322 11.512C41.1322 11.65 40.8742 11.926 40.6582 12.34C40.4482 12.748 40.3432 13.324 40.3432 14.068L38.9392 13.402C38.9392 12.61 39.0982 11.881 39.4162 11.215C39.7342 10.543 40.2112 10.006 40.8472 9.604C41.4892 9.196 42.2692 8.992 43.1872 8.992C44.3272 8.992 45.1762 9.283 45.7342 9.865C46.2982 10.447 46.6462 11.062 46.7782 11.71C46.9162 12.358 46.9852 12.97 46.9852 13.546V19H44.5012V14.41ZM37.8592 19V9.28H40.0372V12.502H40.3432V19H37.8592ZM47.8805 23.32V21.034H48.3125C48.8465 21.034 49.2215 20.914 49.4375 20.674C49.6595 20.434 49.7705 20.068 49.7705 19.576V9.28H52.2185V20.764C52.2185 21.274 52.1075 21.721 51.8855 22.105C51.6695 22.495 51.3575 22.795 50.9495 23.005C50.5475 23.215 50.0765 23.32 49.5365 23.32H47.8805ZM50.9945 8.281C50.7245 8.281 50.4815 8.218 50.2655 8.092C50.0495 7.966 49.8785 7.795 49.7525 7.579C49.6265 7.363 49.5635 7.123 49.5635 6.859C49.5635 6.595 49.6265 6.355 49.7525 6.139C49.8785 5.923 50.0495 5.752 50.2655 5.626C50.4815 5.5 50.7245 5.437 50.9945 5.437C51.2645 5.437 51.5075 5.5 51.7235 5.626C51.9455 5.752 52.1165 5.923 52.2365 6.139C52.3625 6.355 52.4255 6.595 52.4255 6.859C52.4255 7.123 52.3625 7.363 52.2365 7.579C52.1165 7.795 51.9455 7.966 51.7235 8.092C51.5075 8.218 51.2645 8.281 50.9945 8.281ZM54.9146 19V9.28H57.3626V19H54.9146ZM56.1386 8.281C55.8686 8.281 55.6256 8.218 55.4096 8.092C55.1936 7.966 55.0226 7.795 54.8966 7.579C54.7706 7.363 54.7076 7.123 54.7076 6.859C54.7076 6.595 54.7706 6.355 54.8966 6.139C55.0226 5.923 55.1936 5.752 55.4096 5.626C55.6256 5.5 55.8686 5.437 56.1386 5.437C56.4086 5.437 56.6516 5.5 56.8676 5.626C57.0896 5.752 57.2606 5.923 57.3806 6.139C57.5066 6.355 57.5696 6.595 57.5696 6.859C57.5696 7.123 57.5066 7.363 57.3806 7.579C57.2606 7.795 57.0896 7.966 56.8676 8.092C56.6516 8.218 56.4086 8.281 56.1386 8.281ZM66.6848 14.41C66.6848 13.918 66.6488 13.456 66.5768 13.024C66.5048 12.592 66.3128 12.196 66.0008 11.836C65.6948 11.476 65.2268 11.296 64.5968 11.296C64.2488 11.296 63.9218 11.368 63.6158 11.512C63.3158 11.65 63.0578 11.926 62.8418 12.34C62.6318 12.748 62.5268 13.324 62.5268 14.068L61.1228 13.402C61.1228 12.61 61.2818 11.881 61.5998 11.215C61.9178 10.543 62.3948 10.006 63.0308 9.604C63.6728 9.196 64.4528 8.992 65.3708 8.992C66.5108 8.992 67.3598 9.283 67.9178 9.865C68.4818 10.447 68.8298 11.062 68.9618 11.71C69.0998 12.358 69.1688 12.97 69.1688 13.546V19H66.6848V14.41ZM60.0428 19V9.28H62.2208V12.502H62.5268V19H60.0428ZM77.8257 19L74.0277 6.04H76.6017L79.0317 14.95L81.4617 6.058L84.0357 6.04L86.4657 14.95L88.8957 6.04H91.4697L87.6717 19H85.2597L82.7487 10.252L80.2377 19H77.8257ZM94.8057 19.27C94.1337 19.27 93.5517 19.141 93.0597 18.883C92.5737 18.619 92.2017 18.262 91.9437 17.812C91.6917 17.362 91.5657 16.864 91.5657 16.318C91.5657 15.61 91.7307 15.013 92.0607 14.527C92.3907 14.041 92.9337 13.66 93.6897 13.384C94.1097 13.228 94.6227 13.096 95.2287 12.988C95.8347 12.874 96.7077 12.733 97.8477 12.565C97.9917 12.541 98.1387 12.52 98.2887 12.502C98.4447 12.478 98.5977 12.454 98.7477 12.43L97.8657 12.916C97.8657 12.526 97.8057 12.208 97.6857 11.962C97.5657 11.716 97.3737 11.536 97.1097 11.422C96.8457 11.302 96.4977 11.242 96.0657 11.242C95.6517 11.242 95.2587 11.338 94.8867 11.53C94.5147 11.722 94.2597 12.022 94.1217 12.43L91.9077 11.728C92.1597 10.888 92.6337 10.225 93.3297 9.739C94.0257 9.253 94.9377 9.01 96.0657 9.01C96.9717 9.01 97.7487 9.151 98.3967 9.433C99.0507 9.709 99.5397 10.156 99.8637 10.774C100.038 11.098 100.146 11.428 100.188 11.764C100.236 12.094 100.26 12.526 100.26 13.06V19H98.1177V17.002L98.4237 17.416C98.0997 17.86 97.7667 18.217 97.4247 18.487C97.0827 18.757 96.6987 18.955 96.2727 19.081C95.8527 19.207 95.3637 19.27 94.8057 19.27ZM95.3277 17.344C95.7417 17.344 96.1047 17.272 96.4167 17.128C96.7287 16.978 96.9777 16.804 97.1637 16.606C97.3557 16.408 97.4937 16.222 97.5777 16.048C97.6797 15.844 97.7457 15.604 97.7757 15.328C97.8117 15.046 97.8297 14.749 97.8297 14.437V14.248L98.5497 14.428L97.7037 14.572C96.9117 14.704 96.3237 14.812 95.9397 14.896C95.5557 14.98 95.2317 15.07 94.9677 15.166C94.6137 15.31 94.3557 15.472 94.1937 15.652C94.0377 15.826 93.9597 16.036 93.9597 16.282C93.9597 16.504 94.0137 16.696 94.1217 16.858C94.2357 17.014 94.3947 17.134 94.5987 17.218C94.8027 17.302 95.0457 17.344 95.3277 17.344ZM102.78 19V5.77H105.228V19H102.78ZM108.106 19V5.77H110.554V19H108.106ZM117.77 19.27C116.786 19.27 115.91 19.057 115.142 18.631C114.38 18.205 113.783 17.611 113.351 16.849C112.925 16.087 112.712 15.226 112.712 14.266C112.712 13.222 112.919 12.304 113.333 11.512C113.753 10.714 114.335 10.099 115.079 9.667C115.823 9.229 116.672 9.01 117.626 9.01C118.634 9.01 119.498 9.25 120.218 9.73C120.938 10.204 121.466 10.882 121.802 11.764C122.144 12.64 122.267 13.66 122.171 14.824H119.75V13.924C119.75 13.258 119.681 12.724 119.543 12.322C119.405 11.914 119.189 11.614 118.895 11.422C118.601 11.23 118.214 11.134 117.734 11.134C117.182 11.134 116.726 11.248 116.366 11.476C116.006 11.698 115.739 12.031 115.565 12.475C115.391 12.919 115.304 13.474 115.304 14.14C115.304 14.746 115.391 15.262 115.565 15.688C115.739 16.108 116 16.429 116.348 16.651C116.696 16.873 117.122 16.984 117.626 16.984C118.1 16.984 118.508 16.879 118.85 16.669C119.198 16.459 119.462 16.156 119.642 15.76L122.09 16.462C121.85 17.044 121.511 17.548 121.073 17.974C120.635 18.394 120.131 18.715 119.561 18.937C118.991 19.159 118.394 19.27 117.77 19.27ZM114.548 14.824V13.006H120.992V14.824H114.548ZM130.035 19C128.919 19.21 127.923 19.228 127.047 19.054C126.171 18.88 125.547 18.46 125.175 17.794C124.989 17.452 124.872 17.104 124.824 16.75C124.782 16.396 124.767 15.931 124.779 15.355V14.878V6.58H127.227V14.734V15.004C127.221 15.394 127.227 15.703 127.245 15.931C127.269 16.153 127.329 16.336 127.425 16.48C127.623 16.792 127.938 16.975 128.37 17.029C128.802 17.083 129.357 17.062 130.035 16.966V19ZM123.123 11.17V9.28H130.035V11.17H123.123Z" fill="white"/>
</svg>
